<svg width="361" height="52" viewBox="0 0 361 52" fill="none" xmlns="http://www.w3.org/2000/svg">
<g clip-path="url(#clip0_85_39)">
<path d="M321.82 10.0848H334.736L334.777 49.7875C334.777 50.298 335.19 50.718 335.705 50.718L343.101 50.7125C343.615 50.7125 344.029 50.298 344.029 49.782L343.985 10.0848H360.184C360.66 10.0848 360.932 9.52756 360.628 9.15424L355.083 2.19035C354.62 1.60568 353.916 1.26806 353.174 1.26531H321.82C321.305 1.26531 320.891 1.6798 320.891 2.19584V9.15974C320.891 9.66481 321.305 10.0848 321.82 10.0848ZM10.071 49.793L47.9617 2.19584C48.2602 1.82253 47.9919 1.26531 47.5154 1.26531H38.0414C37.2993 1.26531 36.5929 1.60842 36.1301 2.19035L9.24953 35.953V2.19035C9.24953 1.6743 8.83607 1.25982 8.32403 1.25982H0.925499C0.413461 1.25982 0 1.6743 0 2.19035V49.7875C0 50.3035 0.413461 50.718 0.925499 50.718H8.16248C8.90452 50.718 9.6055 50.3776 10.071 49.793ZM36.7845 49.793L49.8182 33.4222L62.8519 49.793C63.3147 50.3776 64.0211 50.718 64.7659 50.718H72.0001C72.5149 50.718 72.9284 50.3035 72.9284 49.7875V2.19035C72.9284 1.6798 72.5149 1.25982 72.0001 1.25982H65.9323C64.4455 1.25982 63.0381 1.93782 62.1071 3.10442L24.9502 49.782C24.6517 50.1553 24.9201 50.7125 25.3965 50.7125H34.8706C35.6181 50.718 36.3191 50.3776 36.7845 49.793ZM63.6733 15.0174V36.9467L54.9441 25.9834L63.6733 15.0174ZM275.232 49.782L237.344 2.18487C236.882 1.60294 236.178 1.26257 235.436 1.25982H228.193C227.681 1.25982 227.268 1.6743 227.268 2.19035V49.7875C227.268 50.3035 227.681 50.718 228.193 50.718H235.43C236.172 50.718 236.879 50.3776 237.339 49.793L250.373 33.4222L263.404 49.793C263.869 50.3776 264.57 50.718 265.315 50.718H274.789C275.265 50.718 275.531 50.1608 275.232 49.782ZM245.238 25.9834L236.506 36.9522V15.0174L245.238 25.9834ZM140.972 0.0273438C126.69 0.0273438 115.113 11.6494 115.113 25.9889C115.113 40.3284 126.69 51.9532 140.972 51.9532C155.257 51.9532 166.834 40.3284 166.834 25.9889C166.839 11.6494 155.257 0.0273438 140.972 0.0273438ZM140.972 43.1283C131.796 43.1283 124.362 35.4534 124.362 25.9889C124.362 16.5244 131.796 8.84407 140.972 8.84407C150.15 8.84407 157.584 16.5189 157.584 25.9889C157.59 35.4534 150.15 43.1283 140.972 43.1283ZM305.218 2.19035V35.953L278.337 2.18487C277.872 1.60294 277.171 1.26257 276.426 1.25982H269.181C268.672 1.25982 268.256 1.6743 268.256 2.19035V25.127C268.256 25.6842 268.442 26.225 268.792 26.6614L276.489 36.3318C276.829 36.7573 277.511 36.5157 277.511 35.975V16.0138L304.397 49.793C304.859 50.3776 305.563 50.718 306.305 50.718H313.542C314.054 50.718 314.468 50.3035 314.468 49.7875V2.19035C314.468 1.6798 314.054 1.25982 313.542 1.25982H306.144C305.632 1.25982 305.218 1.6798 305.218 2.19035ZM214.831 12.5058V2.19035C214.831 1.6743 214.418 1.25982 213.906 1.25982H176.042C175.53 1.25982 175.117 1.6743 175.117 2.19035V49.7875C175.117 50.3035 175.53 50.718 176.042 50.718H183.441C183.953 50.718 184.366 50.3035 184.366 49.7875V10.0903H205.582L191.261 28.086C190.995 28.4209 190.995 28.904 191.261 29.2472L207.622 49.7985C208.087 50.3831 208.788 50.7235 209.533 50.7235H219.007C219.483 50.7235 219.749 50.1663 219.45 49.793L202.635 28.6735L214.292 14.0512C214.637 13.6038 214.831 13.063 214.831 12.5058ZM84.9599 50.718H106.914C107.657 50.718 108.363 50.3776 108.823 49.793L114.368 42.8236C114.666 42.4503 114.401 41.8931 113.924 41.8931H93.2839V2.19035C93.2839 1.6743 92.8704 1.25982 92.3584 1.25982H84.9599C84.4478 1.25982 84.0344 1.6743 84.0344 2.19035V49.7875C84.0344 50.298 84.4533 50.718 84.9599 50.718Z" fill="#FF4655"/>
</g>
<defs>
<clipPath id="clip0_85_39">
<rect width="361" height="52" fill="white"/>
</clipPath>
</defs>
</svg>
